<svg id="Layer_1" data-name="Layer 1" xmlns="http://www.w3.org/2000/svg" viewBox="0 0 298 345.1"><title>clock</title><path d="M264.57,102.06l5.35-5.35C277.64,89,279,77.76,273,71.77s-17.22-4.59-24.93,3.13l-5.39,5.38A148.3,148.3,0,0,0,168,48.3V38.71h7.66c10.91,0,19.84-8.71,19.84-19.36S186.57,0,175.66,0H122.34C111.43,0,102.5,8.71,102.5,19.36s8.93,19.36,19.84,19.36H130V48.3A149,149,0,1,0,264.57,102.06ZM149,306.26A110.17,110.17,0,1,1,259.17,196.1,110.17,110.17,0,0,1,149,306.26Z" style="fill:#dedede"/><path d="M149,69.6A126.5,126.5,0,1,0,275.5,196.1,126.5,126.5,0,0,0,149,69.6Zm0,237.22A110.17,110.17,0,1,1,259.17,196.65,110.17,110.17,0,0,1,149,306.81Z" style="fill:#d22856"/></svg>