<svg xmlns="http://www.w3.org/2000/svg" width="54.46mm" height="68.91mm" viewBox="0 0 154.38 195.33"><title>HtmlAcademyLogo</title><path d="M640.8,303l-0.81-.08-76.69,8V451.49L640,497.12l76.69-45.63V310.92Zm65.86,142.82L640,485.45l-66.66-39.66V388.17l66.37,39.51,0.11,7.16-45.53-27.1-0.07,7,45.71,27.47,0.11,7.35-45.7-27.19-0.07,7L640,456.75l46.15-27.62v-7l-0.06,0V399.48l20.57-12.28v58.58Zm-0.05-66.06-18.24,10.74-8.42,5L639.8,371.54l-0.07,7,34.32,20.41-0.3.18-0.74.44-4.88,2.87L639.8,385.54l-0.07,7,22.36,13.3-5.28,3.53-0.13.08-16.89-10-0.07,7,11.08,6.53-11.29,6.78-66-39.26,66.14-39.75h0Zm0.05-7-67-39.51h0l-66.28,39.46V320L640,313l66.66,7v52.78Z" transform="translate(-562.81 -302.38)" stroke="#231f20" stroke-miterlimit="10"/></svg>