<?xml version="1.0" encoding="utf-8"?>
<!-- Generator: Adobe Illustrator 19.2.1, SVG Export Plug-In . SVG Version: 6.00 Build 0)  -->
<svg version="1.1" id="Layer_1" xmlns="http://www.w3.org/2000/svg" xmlns:xlink="http://www.w3.org/1999/xlink" x="0px" y="0px"
	 width="12.5450001px" height="11.9902992px" viewBox="521.9386597 473.0644226 12.5450001 11.9902992"
	 enable-background="new 521.9386597 473.0644226 12.5450001 11.9902992" xml:space="preserve">
<g>
	<path fill="#D22856" d="M528.1740723,485.054718c-0.2119141,0-0.4121094-0.0907898-0.5518188-0.2489929
		c-3.7977905-4.3243103-4.6434937-5.2979126-4.8583984-5.5722961l-0.0039063,0.0028992
		c-0.5292969-0.6748047-0.8212891-1.5176086-0.8212891-2.3730164c0-2.0947876,1.7041016-3.7988892,3.7988892-3.7988892
		c0.9335938,0,1.8037109,0.3204041,2.484314,0.8984985c0.6962891-0.5780945,1.5595703-0.8984985,2.4628906-0.8984985
		c2.0948486,0,3.7988892,1.7041016,3.7988892,3.7988892c0,0.9091187-0.3183594,1.7539063-0.8964844,2.3807983l-4.8604126,5.5606079
		c-0.1395874,0.1592102-0.3407593,0.25-0.5516968,0.25H528.1740723z M523.9289551,478.3486328
		c0.2080078,0.2548828,2.4707031,2.8388977,4.243103,4.8583984l4.3233032-4.9443054
		c0.3397827-0.3692017,0.5194702-0.8604126,0.5194702-1.3994141c0-1.2851868-1.0448608-2.3310852-2.3300781-2.3310852
		c-0.7285156,0-1.4208984,0.343811-1.9003906,0.9433899c-0.1416016,0.1777039-0.352478,0.2666016-0.5848999,0.2754211
		c-0.2266235-0.0030212-0.4395142-0.1114197-0.5751953-0.2940063c-0.4414063-0.5869141-1.1289063-0.9248047-1.8867188-0.9248047
		c-1.2852173,0-2.3300781,1.0458984-2.3300781,2.3310852c0,0.6777039,0.2753906,1.1708984,0.5067749,1.4667969
		C523.9191895,478.3359375,523.9250488,478.3418274,523.9289551,478.3486328z"/>
</g>
</svg>
