<?xml version="1.0" encoding="utf-8"?>
<!-- Generator: Adobe Illustrator 19.2.1, SVG Export Plug-In . SVG Version: 6.00 Build 0)  -->
<svg version="1.1" id="Layer_2" xmlns="http://www.w3.org/2000/svg" xmlns:xlink="http://www.w3.org/1999/xlink" x="0px" y="0px"
	 width="146.30029px" height="40.375px" viewBox="0 0 146.30029 40.375" enable-background="new 0 0 146.30029 40.375"
	 xml:space="preserve">
<g>
	<path fill="#FFFFFF" d="M71.874,18.6611c0-0.708,0.5801-1.2881,1.25591-1.2881h7.18019c5.0869,0,8.4355,2.7041,8.4355,7.1465
		v0.0635c0,4.8604-4.05659,7.3731-8.8535,7.3731h-5.4746v6.8251c0,0.7081-0.58009,1.2872-1.2886,1.2872
		c-0.6758,0-1.2559-0.5801-1.2559-1.2872V18.6611H71.874z M79.9878,29.6406c3.7344,0,6.18159-1.9961,6.18159-4.959v-0.0625
		c0-3.2207-2.41399-4.894-6.0527-4.894h-5.6992v9.9175h5.5703V29.6406z"/>
	<path fill="#FFFFFF" d="M93.603,18.5c0-0.708,0.5791-1.2881,1.25491-1.2881c0.709,0,1.28809,0.5801,1.28809,1.2881v20.2832
		c0,0.708-0.57909,1.2871-1.28809,1.2871c-0.6758,0-1.25491-0.5791-1.25491-1.2871V18.5z"/>
	<path fill="#FFFFFF" d="M102.7437,18.5322c0-0.6762,0.58-1.2563,1.2558-1.2563h0.3545c0.5801,0,0.9346,0.29,1.2881,0.7402
		l13.6836,17.4497v-16.998c0-0.6758,0.5469-1.2559,1.2558-1.2559c0.6758,0,1.2247,0.5801,1.2247,1.2559v20.3486
		c0,0.6768-0.4805,1.1904-1.15829,1.1904H120.519c-0.5478,0-0.9355-0.3213-1.3183-0.7724l-13.9756-17.8672v17.4492
		c0,0.6768-0.5469,1.2568-1.2568,1.2568c-0.6758,0-1.2227-0.58-1.2227-1.2568V18.5322H102.7437z"/>
	<path fill="#FFFFFF" d="M128.17329,18.5c0-0.708,0.58011-1.2881,1.2569-1.2881c0.70801,0,1.2861,0.5801,1.2861,1.2881v12.3311
		l12.8477-13.168c0.29001-0.2569,0.5791-0.4512,0.998-0.4512c0.6758,0,1.22459,0.6123,1.22459,1.2559
		c0,0.354-0.16209,0.644-0.41989,0.9013l-7.98441,7.92l8.5645,10.5605c0.22461,0.291,0.3535,0.5469,0.3535,0.9356
		c0,0.6757-0.57719,1.288-1.2852,1.288c-0.48239,0-0.80659-0.2587-1.03018-0.58l-8.40141-10.4639l-4.8633,4.8613v4.8946
		c0,0.708-0.57809,1.288-1.2861,1.288c-0.6768,0-1.2569-0.58-1.2569-1.288V18.5H128.17329z"/>
</g>
<path fill="#D22856" d="M98.4976,9.875c-2.002,0-3.6231-1.623-3.6231-3.624c0,2.001-1.623,3.624-3.625,3.624
	c2.002,0,3.625,1.623,3.625,3.624C94.8745,11.498,96.4956,9.875,98.4976,9.875z"/>
<g>
	<path fill="#FFFFFF" d="M43.0937,19.313c0.2461,0,0.4893,0.0141,0.7305,0.0332c-0.437-0.728-1.227-1.2212-2.1362-1.2212
		c-0.877,0-1.6138-0.5679-1.8838-1.354c-0.7271,0.208-1.4253,0.4819-2.0894,0.8159c0.0621,0.0171,0.1221,0.0381,0.188,0.0381
		c1.104,0,2,0.896,2,2c0,0.0962-0.0146,0.188-0.0278,0.2812C40.875,19.5239,41.959,19.313,43.0937,19.313z"/>
	<path fill="#FFFFFF" d="M60.4619,28.0156C60.46,28.0068,55.2871,6.6509,55.2871,6.6509C54.9258,4.3032,52.6938,0,46.688,0
		c-0.8291,0-1.5,0.6709-1.5,1.5s0.6709,1.5,1.5,1.5c4.8559,0,5.5752,3.729,5.6391,4.1431l4.7666,19.7006H55.021
		c-0.4448-3.5566-2.4531-6.6279-5.3052-8.5219c-0.897,0.3794-1.5288,1.269-1.5288,2.3032c0,0.0879-0.0151,0.1709-0.0259,0.2559
		c1.9908,1.3584,3.4151,3.4892,3.8291,5.9648c0.0816,0.4883,0.1348,0.9873,0.1348,1.5c0,0.5117-0.0532,1.0117-0.1348,1.5
		c-0.7163,4.2715-4.4214,7.5303-8.8965,7.5303c-4.4746,0-8.1806-3.2588-8.8955-7.5303c-0.082-0.4883-0.1352-0.9883-0.1352-1.5
		c0-0.5127,0.0532-1.0117,0.1352-1.5c0.147-0.8789,0.4268-1.7119,0.8077-2.4844c-1.0337-0.0771-1.8521-0.9316-1.8521-1.9843
		c0-0.1895-0.0767-0.3575-0.1919-0.4883c-0.938,1.4687-1.5688,3.1494-1.7949,4.957h-1.8198
		c-0.7412-5.9268-5.8023-10.5308-11.9273-10.5308S6.2349,20.917,5.4932,26.8437H3.4199L8.187,7.1431C8.25,6.729,8.9702,3,13.8262,3
		c0.8286,0,1.5-0.6709,1.5-1.5s-0.6714-1.5-1.5-1.5C7.8198,0,5.5879,4.3032,5.227,6.6509c0,0-5.1728,21.3559-5.1752,21.3647
		c-0.2657,1.1094,0.5312,1.8262,1.4262,1.8262c0.0122,0,0.023,0.0039,0.0362,0.0039h3.9819
		c0.0791,0.6289,0.2148,1.2373,0.3867,1.8311c0.0591-0.1065,0.1021-0.2237,0.1021-0.3536c0-1.1045,0.896-2,2-2
		c0.166,0,0.3242,0.0245,0.478,0.0625c-0.043-0.3427-0.0737-0.6875-0.0737-1.042c0-0.5117,0.0527-1.0107,0.1347-1.5
		c0.7154-4.2705,4.4209-7.5307,8.896-7.5307s8.1802,3.2602,8.896,7.5307c0.082,0.4893,0.1353,0.9883,0.1353,1.5
		c0,0.5118-0.0533,1.0118-0.1353,1.5c-0.7148,4.2725-4.4209,7.5313-8.896,7.5313c-2.022,0-3.8828-0.6699-5.3857-1.7939
		c-0.3501,0.3017-0.8003,0.4912-1.2993,0.4912c-0.4131,0-0.7491,0.3359-0.7491,0.748c0,0.2891-0.0649,0.5635-0.1757,0.8115
		c2.0747,1.708,4.7221,2.7432,7.6137,2.7432c6.125,0,11.1851-4.6035,11.9273-10.5293h1.8139
		c0.7422,5.9258,5.8018,10.5293,11.9268,10.5293s11.186-4.6035,11.9272-10.5293H59c0.0122,0,0.0229-0.0049,0.0361-0.0049
		C59.9312,29.8418,60.728,29.125,60.4619,28.0156z"/>
</g>
<g>
	<g>
		<path fill="#D22856" d="M50.686,16.125c-2.4848,0-4.499-2.0142-4.499-4.499c0,2.4848-2.0142,4.499-4.499,4.499
			c2.4848,0,4.499,2.0142,4.499,4.499C46.187,18.1392,48.2002,16.125,50.686,16.125z"/>
	</g>
</g>
<g>
	<g>
		<path fill="#D22856" d="M37.9038,19.626c-1.519,0-2.749-1.23-2.749-2.749c0,1.519-1.23,2.749-2.7486,2.749
			c1.5186,0,2.7486,1.2295,2.7486,2.749C35.1548,20.8555,36.3862,19.626,37.9038,19.626z"/>
	</g>
</g>
<g>
	<g>
		<path fill="#D22856" d="M10.7339,34.0723c-1.5191,0-2.749-1.2305-2.749-2.75c0,1.5195-1.23,2.75-2.7491,2.75
			c1.5191,0,2.7491,1.2285,2.7491,2.748C7.9849,35.3027,9.2148,34.0723,10.7339,34.0723z"/>
	</g>
</g>
</svg>
