<?xml version="1.0" encoding="utf-8"?>
<!-- Generator: Adobe Illustrator 19.2.1, SVG Export Plug-In . SVG Version: 6.00 Build 0)  -->
<svg version="1.1" id="Layer_1" xmlns="http://www.w3.org/2000/svg" xmlns:xlink="http://www.w3.org/1999/xlink" x="0px" y="0px"
	 width="146.30029px" height="40.375px" viewBox="0 0 146.30029 40.375" enable-background="new 0 0 146.30029 40.375"
	 xml:space="preserve">
<g>
	<path fill="#FFFFFF" d="M71.874,18.6611c0-0.708,0.5801-1.2881,1.25591-1.2881h7.18019c5.0869,0,8.4355,2.7041,8.4355,7.1465
		v0.0635c0,4.8604-4.05659,7.3731-8.8535,7.3731h-5.4746v6.8251c0,0.7081-0.58009,1.2872-1.2886,1.2872
		c-0.6758,0-1.2559-0.5801-1.2559-1.2872V18.6611H71.874z M79.9878,29.6406c3.7344,0,6.18159-1.9961,6.18159-4.959v-0.0625
		c0-3.2207-2.41399-4.894-6.0527-4.894h-5.6992v9.9175h5.5703V29.6406z"/>
	<path fill="#FFFFFF" d="M93.603,18.5c0-0.708,0.5791-1.2881,1.25491-1.2881c0.709,0,1.28809,0.5801,1.28809,1.2881v20.2832
		c0,0.708-0.57909,1.2871-1.28809,1.2871c-0.6758,0-1.25491-0.5791-1.25491-1.2871V18.5z"/>
	<path fill="#FFFFFF" d="M102.7437,18.5322c0-0.6762,0.58-1.2563,1.2558-1.2563h0.3545c0.5801,0,0.9346,0.29,1.2881,0.7402
		l13.6836,17.4497v-16.998c0-0.6758,0.5469-1.2559,1.2558-1.2559c0.6758,0,1.2247,0.5801,1.2247,1.2559v20.3486
		c0,0.6768-0.4805,1.1904-1.15829,1.1904H120.519c-0.5478,0-0.9355-0.3213-1.3183-0.7724l-13.9756-17.8672v17.4492
		c0,0.6768-0.5469,1.2568-1.2568,1.2568c-0.6758,0-1.2227-0.58-1.2227-1.2568V18.5322H102.7437z"/>
	<path fill="#FFFFFF" d="M128.17329,18.5c0-0.708,0.58011-1.2881,1.2569-1.2881c0.70801,0,1.2861,0.5801,1.2861,1.2881v12.3311
		l12.8477-13.168c0.29001-0.2569,0.5791-0.4512,0.998-0.4512c0.6758,0,1.22459,0.6123,1.22459,1.2559
		c0,0.354-0.16209,0.644-0.41989,0.9013l-7.98441,7.92l8.5645,10.5605c0.22461,0.291,0.3535,0.5469,0.3535,0.9356
		c0,0.6757-0.57719,1.288-1.2852,1.288c-0.48239,0-0.80659-0.2587-1.03018-0.58l-8.40141-10.4639l-4.8633,4.8613v4.8946
		c0,0.708-0.57809,1.288-1.2861,1.288c-0.6768,0-1.2569-0.58-1.2569-1.288V18.5H128.17329z"/>
</g>
<path fill="#FFFFFF" d="M60.498,28.2656"/>
<path fill="#FFFFFF" d="M60.4619,28.0156C60.46,28.0068,55.2871,6.6509,55.2871,6.6509C54.9258,4.3032,52.6938,0,46.688,0
	c-0.8291,0-1.5,0.6709-1.5,1.5s0.6709,1.5,1.5,1.5c4.8559,0,5.5752,3.729,5.6391,4.1431l4.7666,19.7006H55.021
	C54.2788,20.917,49.2187,16.313,43.0937,16.313S31.9082,20.917,31.167,26.8437h-1.8198C28.606,20.917,23.5449,16.313,17.4199,16.313
	S6.2349,20.917,5.4932,26.8437H3.4199L8.187,7.1431C8.25,6.729,8.9702,3,13.8262,3c0.8286,0,1.5-0.6709,1.5-1.5s-0.6714-1.5-1.5-1.5
	C7.8198,0,5.5879,4.3032,5.227,6.6509c0,0-5.1728,21.3559-5.1752,21.3647c-0.2657,1.1094,0.5312,1.8262,1.4262,1.8262
	c0.0122,0,0.023,0.0039,0.0362,0.0039h3.9819c0.7407,5.9258,5.8017,10.5303,11.9267,10.5303s11.1851-4.6045,11.9273-10.5303h1.814
	c0.7421,5.9258,5.8017,10.5303,11.9267,10.5303s11.1861-4.6045,11.9273-10.5303H59c0.0122,0,0.0229-0.0039,0.0361-0.0039
	C59.9312,29.8418,60.728,29.125,60.4619,28.0156z M26.3149,29.8437c-0.7148,4.2725-4.4209,7.5313-8.896,7.5313
	s-8.1796-3.2588-8.896-7.5313c-0.082-0.4882-0.1347-0.9882-0.1347-1.5c0-0.5117,0.0527-1.0107,0.1347-1.5
	c0.7149-4.2705,4.4209-7.5307,8.896-7.5307s8.1802,3.2602,8.896,7.5307c0.0821,0.4893,0.1353,0.9883,0.1353,1.5
	C26.4502,28.8555,26.397,29.3555,26.3149,29.8437z M51.9902,29.8437c-0.7163,4.2725-4.4214,7.5313-8.8965,7.5313
	c-4.4746,0-8.1806-3.2588-8.8955-7.5313c-0.082-0.4882-0.1352-0.9882-0.1352-1.5c0-0.5117,0.0532-1.0107,0.1352-1.5
	c0.7159-4.2705,4.4209-7.5307,8.8955-7.5307c4.4751,0,8.1812,3.2602,8.8965,7.5307c0.0816,0.4893,0.1348,0.9883,0.1348,1.5
	C52.125,28.8555,52.0718,29.3555,51.9902,29.8437z"/>
</svg>
