<svg xmlns="http://www.w3.org/2000/svg" width="27.75mm" height="22.5mm" viewBox="0 0 78.67 63.79"><title>quotes</title><path d="M35,7.06L30.71,0C28.27,1.5,0,12.21,0,39.62c0,7.23.34,24.17,18.9,24.17,11.19,0,13.94-10.28,13.94-13.58,0-22-21.38-14.18-21.38-14.18C11.46,18,31.26,9.18,35,7.06Z" fill="#f3f3f3"/><path d="M78.67,7.06L74.42,0C72,1.5,43.7,12.21,43.7,39.62c0,7.23.34,24.17,18.9,24.17,11.19,0,13.94-10.28,13.94-13.58,0-22-21.38-14.18-21.38-14.18C55.16,18,75,9.18,78.67,7.06Z" fill="#f3f3f3"/></svg>