<svg xmlns="http://www.w3.org/2000/svg"><symbol id="Android" viewBox="0 0 42.08 47.04"><title>Android</title><path d="M34.14 14H7.94V33.1a3.6 3.6 0 0 0 3.32 3.63v7.43a2.885 2.885 0 0 0 5.77 0v-7.42h8.06v7.42a2.89 2.89 0 0 0 5.77 0v-7.44a3.6 3.6 0 0 0 3.32-3.63V14.34a3.52 3.52 0 0 1-.04-.34zM2.89 15.68a2.89 2.89 0 0 1 2.89 2.88v12.38a2.89 2.89 0 0 1-2.89 2.89A2.89 2.89 0 0 1 0 30.94V18.56a2.88 2.88 0 0 1 2.89-2.88zM39.2 15.68a2.88 2.88 0 0 1 2.89 2.88v12.38a2.88 2.88 0 0 1-2.89 2.89 2.88 2.88 0 0 1-2.88-2.89V18.56a2.88 2.88 0 0 1 2.88-2.88zM8 12h26a10.47 10.47 0 0 0-3.19-7.27L33.26.5a.31.31 0 0 0-.06-.5.3.3 0 0 0-.41.11l-2.37 4.15A16.11 16.11 0 0 0 21 .86a16.39 16.39 0 0 0-9.37 3.4L9.3.15a.305.305 0 0 0-.53.3l2.44 4.23A10.48 10.48 0 0 0 8 12zm17.32-5.2a1.5 1.5 0 0 1 3 0 1.5 1.5 0 0 1-3 0zm-11.14 0a1.5 1.5 0 0 1 3 0 1.5 1.5 0 0 1-3 0z" fill="#a4c639"/></symbol><symbol id="Apple" viewBox="0 0 46.21 56.75"><title>Apple</title><path d="M38.59 30.15a12.54 12.54 0 0 0 7.62 11.48 31 31 0 0 1-3.93 8.07c-2.37 3.46-4.82 6.9-8.69 7s-5-2.25-9.37-2.25-5.7 2.18-9.3 2.32S8.36 53 6 49.56c-4.87-7-8.6-19.91-3.6-28.59a13.9 13.9 0 0 1 11.74-7.11c3.67-.07 7.13 2.47 9.37 2.47s6.44-3 10.87-2.6a13.26 13.26 0 0 1 10.38 5.63c-.27.17-6.2 3.62-6.13 10.8m-7.18-21.1A12.5 12.5 0 0 0 34.4 0 12.72 12.72 0 0 0 26 4.3c-1.84 2.12-3.44 5.52-3 8.78 3.18.25 6.44-1.62 8.42-4" fill="#fff"/></symbol><symbol id="Windows" viewBox="0 0 43.92 41.99"><title>Windows2</title><path d="M20.87 20H0V0h20.87v20z" fill="#f05423"/><path d="M43.92 20H23V0h20.92v20z" fill="#84c441"/><path d="M20.87 42H0V22h20.87v20z" fill="#2dabe2"/><path d="M43.92 42H23V22h20.92v20z" fill="#f9bc15"/></symbol></svg>